<svg xmlns="http://www.w3.org/2000/svg" viewBox="0 0 1024 1024" fill="#000">
  <path d="M 480.5 26.1 C 423.4 -39.3 444.6 27.1 439.0 42.4 C 433.4 57.8 462.6 98.9 446.6 118.1 C 430.7 137.3 362.2 147.1 343.3 157.8 C 324.5 168.4 331.6 176.9 333.5 182.0 C 335.4 187.1 358.2 185.1 354.6 188.6 C 351.0 192.1 330.6 201.5 312.1 202.9 C 293.7 204.4 255.7 204.5 243.7 197.1 C 231.8 189.8 248.0 165.7 240.6 158.8 C 233.2 151.9 201.4 137.7 199.4 155.7 C 197.3 173.6 229.6 249.5 228.5 266.6 C 227.3 283.6 200.0 255.7 192.5 258.2 C 185.0 260.7 188.6 281.0 183.6 281.8 C 178.6 282.5 170.1 263.6 162.5 262.6 C 154.9 261.6 146.6 279.9 137.9 275.9 C 129.2 271.9 133.2 240.9 110.4 238.5 C 87.7 236.0 19.5 254.6 1.4 261.1 C -16.7 267.7 -2.7 275.8 1.8 278.0 C 6.3 280.1 22.4 271.9 28.5 274.1 C 34.6 276.4 40.9 289.1 38.3 291.4 C 35.8 293.7 14.9 285.5 13.3 288.0 C 11.7 290.5 30.4 302.8 28.5 306.6 C 26.6 310.3 3.1 305.6 1.9 310.7 C 0.8 315.9 14.9 335.6 21.4 337.6 C 27.9 339.6 19.5 316.1 40.8 322.8 C 62.0 329.6 131.6 364.8 149.0 378.0 C 166.4 391.2 134.6 396.1 145.0 402.0 C 155.4 407.9 207.9 412.7 211.3 413.3 C 214.8 414.0 171.0 403.1 165.9 405.9 C 160.7 408.8 180.5 423.4 180.5 430.5 C 180.6 437.6 164.3 438.8 166.2 448.6 C 168.0 458.3 179.8 479.0 191.5 488.7 C 203.3 498.4 228.9 493.7 236.5 506.5 C 244.1 519.3 239.0 555.7 237.2 565.4 C 235.5 575.2 220.1 551.4 226.1 565.0 C 232.2 578.6 272.7 643.0 273.5 647.1 C 274.2 651.2 240.2 584.8 230.5 589.4 C 220.9 594.1 216.7 662.5 215.5 675.0 C 214.4 687.4 220.4 663.3 223.7 664.0 C 227.0 664.8 236.3 675.8 235.4 679.4 C 234.4 682.9 224.3 668.2 218.0 685.3 C 211.6 702.4 204.4 760.5 197.2 782.0 C 190.0 803.6 164.8 799.3 174.7 814.5 C 184.7 829.8 231.8 861.3 256.8 873.7 C 281.9 886.1 309.0 889.1 325.1 888.7 C 341.2 888.3 335.9 869.8 353.3 871.1 C 370.8 872.5 413.4 887.9 429.6 896.7 C 445.8 905.4 440.7 918.9 450.8 923.7 C 460.9 928.4 475.9 926.0 490.2 925.1 C 504.5 924.3 530.1 931.4 536.6 918.7 C 543.1 905.9 517.8 868.7 529.1 848.5 C 540.3 828.3 583.4 802.2 604.1 797.5 C 624.9 792.7 640.6 819.4 653.4 819.9 C 666.2 820.4 673.7 801.8 680.9 800.3 C 688.2 798.8 696.6 807.5 696.7 810.9 C 696.8 814.3 673.6 814.3 681.4 820.6 C 689.3 826.8 723.9 846.3 743.6 848.3 C 763.2 850.3 789.5 838.7 799.3 832.6 C 809.0 826.5 791.6 822.5 802.2 811.6 C 812.7 800.7 850.9 779.9 862.6 767.0 C 874.3 754.2 880.5 744.3 872.2 734.6 C 863.9 725.0 821.1 720.3 812.6 709.1 C 804.2 697.9 825.1 679.9 821.2 667.4 C 817.3 655.0 787.9 645.2 789.1 634.5 C 790.4 623.8 827.4 614.9 828.8 603.5 C 830.2 592.1 800.2 575.6 797.6 566.1 C 794.9 556.6 813.6 558.3 813.0 546.4 C 812.4 534.6 806.5 497.8 793.9 495.0 C 781.4 492.2 745.3 531.9 737.4 529.6 C 729.5 527.3 739.1 497.1 746.5 481.4 C 753.9 465.6 826.1 510.9 781.8 435.0 C 737.5 359.2 537.6 91.5 480.5 26.1 Z"/>
  <path d="M 1004.9 834.2 C 1003.9 839.4 1009.8 856.8 1001.6 865.4 C 993.4 874.0 964.5 877.0 955.6 885.9 C 946.8 894.8 946.2 908.3 948.8 918.8 C 951.4 929.4 967.5 938.3 971.2 949.0 C 975.0 959.8 966.4 974.8 971.3 983.6 C 976.2 992.4 991.9 1012.2 1000.7 1001.9 C 1009.5 991.5 1022.8 949.3 1024.0 921.3 C 1025.1 893.4 1011.0 848.8 1007.8 834.3 C 1004.6 819.8 1005.9 829.0 1004.9 834.2 Z"/>
</svg>
