<svg xmlns="http://www.w3.org/2000/svg" viewBox="0 0 1024 1024" fill="#000">
  <path d="M 723.7 276.4 C 723.0 279.7 717.3 292.1 720.4 294.1 C 723.4 296.0 738.5 285.4 742.1 288.0 C 745.7 290.7 745.4 305.4 742.0 310.0 C 738.7 314.6 727.0 318.5 722.0 315.7 C 717.0 312.9 716.2 296.2 711.8 293.0 C 707.5 289.8 702.6 282.1 696.0 296.5 C 689.3 310.9 674.0 366.2 672.0 379.5 C 670.0 392.8 680.8 373.6 683.8 376.3 C 686.8 378.9 690.7 383.3 689.9 395.2 C 689.1 407.2 684.2 430.0 679.1 448.0 C 674.0 466.1 669.8 485.9 659.3 503.3 C 648.9 520.8 634.7 537.4 616.4 552.6 C 598.2 567.9 564.1 592.2 549.7 595.0 C 535.3 597.7 529.6 577.3 530.0 568.9 C 530.4 560.6 553.3 547.1 552.2 544.8 C 551.1 542.5 528.7 547.1 523.5 555.2 C 518.4 563.4 528.2 578.7 521.2 593.6 C 514.2 608.4 487.2 632.2 481.4 644.5 C 475.6 656.8 488.9 661.4 486.5 667.5 C 484.0 673.5 473.4 678.6 466.8 680.8 C 460.1 682.9 451.1 683.1 446.4 680.1 C 441.8 677.1 462.2 663.2 439.0 663.0 C 415.8 662.8 342.6 664.5 307.1 678.7 C 271.5 692.9 243.3 735.8 225.8 748.0 C 208.2 760.2 205.8 747.0 201.9 752.0 C 198.0 756.9 212.3 769.3 202.3 777.8 C 192.4 786.2 152.6 796.0 142.2 802.7 C 131.8 809.5 142.4 816.2 139.9 818.1 C 137.4 819.9 126.0 808.8 127.0 813.6 C 127.9 818.4 145.3 843.7 145.5 846.8 C 145.8 850.0 130.6 829.3 128.6 832.5 C 126.5 835.7 126.7 862.0 133.2 866.1 C 139.7 870.3 163.9 860.4 167.5 857.4 C 171.2 854.3 156.3 852.8 155.1 847.8 C 154.0 842.9 156.2 826.5 160.4 827.6 C 164.6 828.8 181.9 835.1 180.2 854.7 C 178.5 874.3 151.0 927.1 150.2 945.1 C 149.4 963.2 171.4 964.4 175.4 963.0 C 179.4 961.6 172.2 942.3 174.2 936.5 C 176.2 930.8 186.4 922.5 187.5 928.5 C 188.6 934.4 178.4 969.4 181.0 972.3 C 183.5 975.2 196.7 950.0 202.9 946.0 C 209.2 941.9 208.7 964.3 218.4 948.1 C 228.1 931.8 255.3 868.7 261.1 848.3 C 266.8 828.0 257.5 830.4 252.9 826.0 C 248.4 821.7 235.2 826.5 234.0 822.3 C 232.9 818.1 249.9 804.9 246.1 800.9 C 242.3 797.0 217.6 803.2 211.1 798.6 C 204.6 794.0 200.9 777.9 207.1 773.6 C 213.2 769.2 237.9 770.2 248.1 772.5 C 258.4 774.8 262.5 790.5 268.6 787.4 C 274.7 784.3 279.2 757.7 284.5 753.8 C 289.7 749.9 281.6 767.9 300.0 763.9 C 318.4 760.0 370.3 735.2 395.0 730.1 C 419.7 725.0 442.1 724.2 448.3 733.3 C 454.5 742.5 428.6 771.4 432.3 785.1 C 436.0 798.8 458.4 818.7 470.4 815.5 C 482.4 812.2 493.9 775.0 504.2 765.8 C 514.5 756.6 530.8 766.1 532.2 760.3 C 533.5 754.5 513.0 739.6 512.2 730.9 C 511.5 722.2 524.5 708.3 527.7 708.2 C 530.9 708.2 530.0 729.3 531.4 730.7 C 532.8 732.1 532.0 717.7 536.0 716.8 C 539.9 715.8 554.2 721.1 555.0 724.9 C 555.9 728.7 538.6 739.1 541.3 739.7 C 543.9 740.2 560.4 728.7 570.9 728.3 C 581.4 727.8 593.5 741.3 604.2 737.0 C 614.9 732.6 629.2 702.4 635.2 702.3 C 641.2 702.1 636.6 737.4 640.3 735.9 C 644.1 734.3 650.6 699.7 657.8 693.2 C 665.0 686.7 678.8 701.4 683.8 696.8 C 688.8 692.1 684.0 670.4 687.6 665.5 C 691.3 660.5 705.1 659.5 705.8 667.1 C 706.4 674.8 688.9 706.6 691.7 711.1 C 694.4 715.7 716.1 701.9 722.2 694.6 C 728.2 687.3 723.7 673.9 728.0 667.5 C 732.2 661.0 747.3 663.4 747.7 655.9 C 748.0 648.3 729.8 636.5 730.0 622.2 C 730.2 608.0 747.0 591.2 749.0 570.2 C 751.0 549.2 740.7 511.6 742.2 496.4 C 743.6 481.1 752.5 480.6 757.8 478.5 C 763.1 476.5 772.1 487.1 774.1 484.0 C 776.0 480.9 766.2 473.9 769.4 459.7 C 772.7 445.4 796.8 421.7 793.5 398.3 C 790.3 374.9 756.8 339.5 750.1 319.3 C 743.4 299.1 757.4 284.6 753.2 277.1 C 749.0 269.5 729.7 274.2 724.8 274.0 C 719.9 273.9 724.4 273.1 723.7 276.4 Z"/>
  <path d="M 753.7 3.5 C 751.2 6.9 740.1 11.1 740.1 21.8 C 740.1 32.5 753.8 46.2 753.9 67.8 C 754.0 89.4 750.8 137.7 740.5 151.6 C 730.2 165.5 699.0 147.7 692.3 151.2 C 685.7 154.7 704.9 163.9 700.8 172.3 C 696.6 180.7 670.5 183.6 667.6 201.4 C 664.8 219.2 676.6 270.1 683.7 279.0 C 690.8 287.8 701.2 259.3 710.2 254.6 C 719.2 250.0 740.6 256.4 737.9 251.0 C 735.2 245.6 700.6 230.0 694.1 222.3 C 687.6 214.6 693.4 205.7 698.9 204.7 C 704.5 203.8 716.4 218.3 727.6 216.8 C 738.7 215.2 747.2 192.7 765.9 195.4 C 784.6 198.2 824.0 236.8 840.0 233.3 C 856.0 229.8 848.9 187.2 861.9 174.2 C 874.9 161.2 902.6 163.3 918.1 155.2 C 933.6 147.1 952.2 129.4 955.0 125.7 C 957.8 122.0 941.0 136.4 934.9 133.2 C 928.7 129.9 919.4 117.2 917.9 106.1 C 916.5 94.9 929.4 68.4 926.2 66.4 C 923.0 64.4 911.0 90.9 898.7 94.1 C 886.4 97.3 876.4 101.1 852.4 85.6 C 828.4 70.1 771.3 14.8 754.8 1.1 C 738.4 -12.5 756.2 0.1 753.7 3.5 Z"/>
  <path d="M 366.7 754.4 C 362.9 758.9 354.9 777.2 345.6 780.2 C 336.2 783.2 324.3 766.1 310.7 772.6 C 297.1 779.2 268.7 813.0 264.0 819.6 C 259.3 826.3 278.7 807.6 282.5 812.8 C 286.4 817.9 281.7 842.0 287.0 850.4 C 292.2 858.8 304.8 869.0 314.1 863.2 C 323.3 857.4 331.0 821.4 342.6 815.6 C 354.1 809.7 372.0 833.5 383.6 828.1 C 395.2 822.7 408.6 793.8 412.1 783.2 C 415.7 772.6 412.0 769.4 404.7 764.4 C 397.5 759.4 375.0 754.8 368.6 753.2 C 362.3 751.5 370.5 749.9 366.7 754.4 Z"/>
</svg>
